<svg viewBox="0 0 64 64" xmlns="http://www.w3.org/2000/svg">
  <!-- Fundo -->
  <rect width="64" height="64" rx="12" fill="#6366f1"/>
  
  <!-- Gaveteiros 2x2 -->
  <rect x="6" y="6" width="24" height="18" rx="3" fill="#22c55e"/>
  <rect x="34" y="6" width="24" height="18" rx="3" fill="#ef4444"/>
  <rect x="6" y="28" width="24" height="18" rx="3" fill="#ef4444"/>
  <rect x="34" y="28" width="24" height="18" rx="3" fill="#22c55e"/>
  
  <!-- Números -->
  <text x="18" y="19" fill="white" fontSize="10" textAnchor="middle" fontWeight="bold">1</text>
  <text x="46" y="19" fill="white" fontSize="10" textAnchor="middle" fontWeight="bold">2</text>
  <text x="18" y="41" fill="white" fontSize="10" textAnchor="middle" fontWeight="bold">3</text>
  <text x="46" y="41" fill="white" fontSize="10" textAnchor="middle" fontWeight="bold">4</text>
  
  <!-- Mini boneco -->
  <ellipse cx="50" cy="54" rx="8" ry="9" fill="white"/>
  <circle cx="50" cy="42" r="6" fill="#fcd34d"/>
  <circle cx="48" cy="41" r="1" fill="#1e293b"/>
  <circle cx="52" cy="41" r="1" fill="#1e293b"/>
  <path d="M47 44 Q50 47 53 44" stroke="#1e293b" strokeWidth="1" fill="none"/>
  <path d="M45 40 Q48 36 55 40" fill="#92400e"/>
  
  <!-- Mini pacote -->
  <rect x="38" y="56" width="10" height="7" rx="2" fill="#f59e0b"/>
  <circle cx="43" cy="56" r="2" fill="#dc2626"/>
</svg>
